<svg width="805" height="671" viewBox="0 0 805 671" fill="none" xmlns="http://www.w3.org/2000/svg">
<path fill-rule="evenodd" clip-rule="evenodd" d="M589.942 509.837C536.016 606.004 433.098 670.994 315 670.994C141.03 670.994 0 529.964 0 355.994C0 182.024 141.03 40.9941 315 40.9941C321.624 40.9941 328.199 41.1986 334.721 41.6015L729.545 44.3253C787.049 44.7221 822.732 107.023 793.98 156.824L592.89 505.122C591.952 506.746 590.968 508.318 589.942 509.837Z" fill="#FB4500"/>
<circle cx="315" cy="355" r="250" fill="#212325"/>
<path d="M234 469.333L290.16 298.058L279.09 271H261V242.667H288C293.67 242.667 298.53 246.35 300.555 251.592L377.91 441H396V469.333H369C363.195 469.333 358.335 465.508 356.445 460.267L305.955 336.875L262.62 469.333H234Z" fill="#FB4500"/>
</svg>
