<svg width="654" height="395" viewBox="0 0 654 395" fill="none" xmlns="http://www.w3.org/2000/svg">
<path d="M380.224 392.919L380.99 393.785L382.181 393.098L429.733 365.643L430.363 365.279L429.957 364.821L280.664 196.334L569.003 266.979C581.371 270.363 596.438 269.396 606.483 263.596L651.344 237.696L652.21 237.196L651.344 236.696L603.679 209.177L602.813 208.677L601.947 209.177L572.475 226.193L126.096 116.625C126.093 116.624 126.089 116.623 126.086 116.622C113.496 113.371 98.6727 114.477 88.855 120.145L43.9945 146.045L43.1285 146.545L43.9945 147.045L91.6588 174.564L92.5248 175.064L93.3909 174.564L122.863 157.548L185.605 172.923L380.224 392.919Z" fill="#333333" stroke="#333333" stroke-width="2"/>
<path d="M380.224 375.875L380.99 376.741L382.181 376.053L429.733 348.599L430.363 348.235L429.957 347.777L280.664 179.29L569.003 249.935C581.371 253.319 596.438 252.352 606.483 246.552L651.344 220.652L652.21 220.152L651.344 219.652L603.679 192.133L602.813 191.633L601.947 192.133L572.475 209.149L126.096 99.5804C126.093 99.5795 126.089 99.5786 126.086 99.5778C113.496 96.3267 98.6727 97.4327 88.855 103.101L43.9945 129.001L43.1285 129.501L43.9945 130.001L91.6588 157.52L92.5248 158.02L93.3909 157.52L122.863 140.504L185.605 155.879L380.224 375.875Z" fill="#FB4500" stroke="#333333" stroke-width="2"/>
</svg>
