<svg width="73" height="65" viewBox="0 0 73 65" fill="none" xmlns="http://www.w3.org/2000/svg">
<path d="M15.4849 54.1667L26.221 21.423L24.1048 16.25H20.6465V10.8334H25.8081C26.892 10.8334 27.8211 11.5375 28.2082 12.5396L42.9963 48.75H46.4546V54.1667H41.2929C40.1832 54.1667 39.2541 53.4355 38.8928 52.4334L29.2406 28.8438L20.9562 54.1667H15.4849Z" fill="#FB4500"/>
<path d="M40.5102 24.1325C40.7402 24.2225 40.9877 24.2675 41.2527 24.2675C41.6027 24.2675 41.9577 24.1875 42.3177 24.0275C42.6427 23.8825 42.9452 23.6925 43.2252 23.4575L45.5952 21.47C45.6652 21.415 45.7427 21.3875 45.8277 21.3875C45.9277 21.3875 46.0177 21.43 46.0977 21.515L46.7877 22.31C46.8427 22.38 46.8702 22.4575 46.8702 22.5425C46.8702 22.6525 46.8277 22.745 46.7427 22.82L44.2677 24.9575C43.8277 25.3325 43.3552 25.625 42.8502 25.835C42.3502 26.04 41.8402 26.1425 41.3202 26.1425C40.7902 26.1425 40.2877 26.05 39.8127 25.865C39.3427 25.675 38.9277 25.4075 38.5677 25.0625C38.1977 24.7125 37.9102 24.3075 37.7052 23.8475C37.5052 23.3825 37.4052 22.88 37.4052 22.34C37.4052 21.82 37.5052 21.325 37.7052 20.855C37.9052 20.38 38.1827 19.965 38.5377 19.61C38.8927 19.26 39.3052 18.985 39.7752 18.785C40.2452 18.585 40.7377 18.485 41.2527 18.485C41.9977 18.485 42.7402 18.7275 43.4802 19.2125C43.5952 19.2875 43.6727 19.3575 43.7127 19.4225C43.7427 19.4675 43.7577 19.5175 43.7577 19.5725C43.7577 19.6175 43.7427 19.6675 43.7127 19.7225L43.0977 20.78C43.0427 20.88 42.9652 20.93 42.8652 20.93C42.7652 20.93 42.6802 20.9 42.6102 20.84C42.4302 20.7 42.2227 20.5925 41.9877 20.5175C41.7577 20.4375 41.5152 20.3975 41.2602 20.3975C40.9902 20.3975 40.7402 20.4475 40.5102 20.5475C40.2802 20.6425 40.0802 20.78 39.9102 20.96C39.7452 21.14 39.6152 21.35 39.5202 21.59C39.4302 21.825 39.3852 22.0775 39.3852 22.3475C39.3852 22.6275 39.4327 22.8875 39.5277 23.1275C39.6227 23.3625 39.7552 23.565 39.9252 23.735C40.0902 23.905 40.2852 24.0375 40.5102 24.1325ZM51.2902 26C51.0502 26 50.9302 25.8825 50.9302 25.6475V21.7175L47.4127 25.8575C47.3327 25.9525 47.2202 26 47.0752 26H45.8227C45.5827 26 45.4627 25.8825 45.4627 25.6475V18.995C45.4627 18.89 45.4952 18.805 45.5602 18.74C45.6252 18.67 45.7102 18.635 45.8152 18.635H47.0602C47.1652 18.635 47.2552 18.67 47.3302 18.74C47.4052 18.81 47.4427 18.895 47.4427 18.995V22.9175L51.0577 18.71C51.1077 18.66 51.1827 18.635 51.2827 18.635H52.5277C52.6327 18.635 52.7227 18.67 52.7977 18.74C52.8727 18.805 52.9102 18.89 52.9102 18.995V22.895L56.4352 18.77C56.4802 18.72 56.5227 18.685 56.5627 18.665C56.6077 18.645 56.6652 18.635 56.7352 18.635H57.9802C58.0802 18.635 58.1677 18.67 58.2427 18.74C58.3227 18.81 58.3627 18.895 58.3627 18.995V23.5325L60.7252 21.485C60.8352 21.4 60.9327 21.3575 61.0177 21.3575C61.1027 21.3575 61.1777 21.395 61.2427 21.47L62.0077 22.295C62.0827 22.385 62.1202 22.465 62.1202 22.535C62.1202 22.625 62.0702 22.7125 61.9702 22.7975L61.7677 22.9775L58.3327 25.88C58.2477 25.96 58.1402 26 58.0102 26H56.7427C56.5027 26 56.3827 25.8825 56.3827 25.6475V21.7175L52.9027 25.8125C52.8077 25.9375 52.6877 26 52.5427 26H51.2902ZM63.6907 19.445C63.4307 19.595 63.2707 19.795 63.2107 20.045L61.5832 25.985C61.3232 26.92 60.9757 27.62 60.5407 28.085C60.0357 28.62 59.3757 28.8875 58.5607 28.8875C58.2907 28.8875 58.0582 28.86 57.8632 28.805C57.6082 28.74 57.4807 28.64 57.4807 28.505C57.4807 28.48 57.4832 28.46 57.4882 28.445L57.8482 27.14C57.8732 27.05 57.9057 26.9875 57.9457 26.9525C57.9807 26.9175 58.0232 26.9 58.0732 26.9C58.1432 26.91 58.1932 26.92 58.2232 26.93C58.2682 26.95 58.3207 26.96 58.3807 26.96C58.4807 26.96 58.5882 26.9425 58.7032 26.9075C58.8182 26.8775 58.9282 26.8325 59.0332 26.7725C59.2782 26.6225 59.4382 26.42 59.5132 26.165L61.4707 19.16C61.5507 18.875 61.6732 18.6175 61.8382 18.3875C62.0082 18.1575 62.2132 17.965 62.4532 17.81C62.9382 17.495 63.5007 17.3375 64.1407 17.3375C64.3357 17.3375 64.5257 17.3525 64.7107 17.3825C64.8957 17.4175 65.0257 17.455 65.1007 17.495C65.1907 17.55 65.2357 17.6225 65.2357 17.7125C65.2357 17.7475 65.2332 17.775 65.2282 17.795L64.8757 19.0625C64.8407 19.2125 64.7507 19.2875 64.6057 19.2875C64.5607 19.2875 64.5182 19.28 64.4782 19.265C64.4182 19.255 64.3732 19.25 64.3432 19.25C64.1232 19.25 63.9057 19.315 63.6907 19.445Z" fill="#FB4500"/>
</svg>
