<svg width="472" height="393" viewBox="0 0 472 393" fill="none" xmlns="http://www.w3.org/2000/svg">
<g filter="url(#filter0_b_201_571)">
<path d="M27 53C27 36.4315 40.4315 23 57 23H127V123H27V53Z" fill="white" fill-opacity="0.1"/>
<path d="M127.5 23V22.5H127H57C40.1553 22.5 26.5 36.1553 26.5 53V123V123.5H27H127H127.5V123V23Z" stroke="white" stroke-opacity="0.13"/>
</g>
<path fill-rule="evenodd" clip-rule="evenodd" d="M426 0H162C139.356 0 121 18.3563 121 41V79.2689C121 101.913 102.644 120.269 80 120.269H41C18.3563 120.269 0 138.625 0 161.269V347C0 372.405 20.5949 393 46 393H426C451.405 393 472 372.405 472 347V46C472 20.5949 451.405 0 426 0Z" fill="#2B2D2E"/>
<defs>
<filter id="filter0_b_201_571" x="14.6" y="10.6" width="124.8" height="124.8" filterUnits="userSpaceOnUse" color-interpolation-filters="sRGB">
<feFlood flood-opacity="0" result="BackgroundImageFix"/>
<feGaussianBlur in="BackgroundImageFix" stdDeviation="5.7"/>
<feComposite in2="SourceAlpha" operator="in" result="effect1_backgroundBlur_201_571"/>
<feBlend mode="normal" in="SourceGraphic" in2="effect1_backgroundBlur_201_571" result="shape"/>
</filter>
</defs>
</svg>
